<svg width="154" height="34" viewBox="0 0 154 34" fill="none" xmlns="http://www.w3.org/2000/svg">
<path d="M4.6521 7.99996V26.0048H11.3718V7.99996H16.0239V2.73944H0V7.99996H4.6521Z" fill="#1E0D1F"/>
<path d="M18.0056 13.1612V26.0048H24.4072V9.13147H21.0871L16.8128 10.3027V12.4267L18.0056 13.1612Z" fill="#1E0D1F"/>
<path d="M17.6279 4.02976L20.8883 7.30518H21.6438L25.0434 4.02976V3.33497L21.6438 0.0794037H20.8883L17.6279 3.33497V4.02976Z" fill="#1E0D1F"/>
<path d="M40.2713 24.5756L40.4503 24.3572L39.4562 21.6575C39.0056 22.0148 38.429 22.2729 37.7266 22.4317C37.0374 22.5905 36.3614 22.6699 35.6987 22.6699C35.4072 22.6699 35.162 22.6566 34.9632 22.6302C34.7644 22.6037 34.5059 22.5044 34.1878 22.3324C33.883 22.1604 33.6378 21.9221 33.4522 21.6178C33.2667 21.3002 33.101 20.8303 32.9552 20.2083C32.8094 19.5731 32.7365 18.8122 32.7365 17.9255C32.7365 15.8874 32.9618 14.4582 33.4125 13.6377C33.8763 12.8039 34.7113 12.387 35.9174 12.387C36.103 12.387 36.2488 12.4003 36.3548 12.4267L37.488 15.464L40.3111 15.4441L40.6093 10.7791L40.1918 10.3622C38.9194 9.26381 37.1302 8.7146 34.824 8.7146C33.6311 8.7146 32.5178 8.92635 31.484 9.34983C30.4635 9.76009 29.5688 10.349 28.8001 11.1166C28.0446 11.8709 27.4482 12.8238 27.0108 13.9751C26.5735 15.1265 26.3548 16.4036 26.3548 17.8064C26.3548 20.4002 27.0639 22.4846 28.482 24.0594C29.9134 25.6343 31.9744 26.4217 34.6649 26.4217C35.4602 26.4217 36.2024 26.3489 36.8916 26.2034C37.5941 26.071 38.1507 25.9056 38.5616 25.7071C38.9857 25.4953 39.3436 25.2902 39.6351 25.0917C39.94 24.88 40.152 24.7079 40.2713 24.5756Z" fill="#1E0D1F"/>
<path d="M49.1852 17.8858L52.2667 26.0048H60.0203L54.6922 16.9329L59.901 9.13147H52.4457L49.1852 17.8858Z" fill="#1E0D1F"/>
<path d="M42.3065 3.55333V26.0048H48.7876V0H47.4954L41.1136 0.992552V2.8387L42.3065 3.55333Z" fill="#1E0D1F"/>
<path fill-rule="evenodd" clip-rule="evenodd" d="M64.2163 25.7468C65.3164 26.1967 66.6087 26.4217 68.0931 26.4217C68.8883 26.4217 69.7233 26.3291 70.5981 26.1438C71.4728 25.9585 72.3807 25.6012 73.3217 25.0718C74.276 24.5293 74.9984 23.8609 75.4887 23.0669L74.3158 21.0619C73.9447 21.406 73.4808 21.7038 72.9241 21.9552C72.3807 22.2067 71.8373 22.392 71.2939 22.5111C70.7637 22.6302 70.2667 22.6897 69.8028 22.6897C69.3257 22.6897 68.9215 22.65 68.5901 22.5706C68.2588 22.4912 67.9341 22.3324 67.616 22.0942C67.2979 21.856 67.0527 21.4854 66.8804 20.9825C66.7213 20.4796 66.6418 19.8378 66.6418 19.057V18.6798H75.7273V16.4764C75.7273 13.7634 75.164 11.7981 74.0375 10.5806C72.9109 9.34984 71.0421 8.73445 68.4311 8.73445C65.714 8.73445 63.6 9.49541 62.0891 11.0173C60.5782 12.5392 59.8227 14.7824 59.8227 17.7468C59.8227 18.9908 59.9685 20.1223 60.2601 21.1413C60.5517 22.1471 61.0089 23.0537 61.6318 23.8609C62.268 24.6682 63.1295 25.2968 64.2163 25.7468ZM69.4251 12.1687C69.5974 12.8701 69.6836 14.0611 69.6836 15.7419H66.6617V14.0744C66.6617 13.598 66.6749 13.2076 66.7014 12.9032C66.7412 12.5856 66.8207 12.2812 66.94 11.99C67.0593 11.6856 67.2449 11.4673 67.4967 11.3349C67.7485 11.1894 68.0732 11.1166 68.4708 11.1166C68.9347 11.1166 69.2528 11.4673 69.4251 12.1687Z" fill="#1E0D1F"/>
<path d="M78.7756 24.8138C79.4913 25.8857 80.7438 26.4217 82.5331 26.4217C83.4343 26.4217 84.2494 26.3225 84.9784 26.124C85.7206 25.9254 86.2508 25.7335 86.5689 25.5483C86.887 25.3498 87.1454 25.1513 87.3442 24.9527V22.253C87.1984 22.3721 87.0129 22.4647 86.7876 22.5309C86.5622 22.5971 86.3104 22.6302 86.0321 22.6302C85.3959 22.6302 84.9254 22.4581 84.6205 22.114C84.3157 21.77 84.1633 21.0686 84.1633 20.0098V12.6253H87.4834V9.13147H84.2229V4.50618H80.7239L78.6961 9.13147L76.3501 9.86596V12.6253H77.7219V19.3746C77.7219 21.9288 78.0732 23.7418 78.7756 24.8138Z" fill="#1E0D1F"/>
<path d="M99.2586 23.6823C99.7887 25.0321 100.133 25.8063 100.292 26.0048H107.608C107.33 25.5946 106.893 24.741 106.296 23.4441C105.7 22.1339 105.123 20.8303 104.567 19.5334C104.01 18.2365 103.414 16.9991 102.777 15.8213C102.141 14.6434 101.631 13.9222 101.247 13.6575L107.171 2.73944H100.551L95.6005 13.8759V2.73944H89.02V26.0048H95.6005V15.1662C96.1307 16.0529 96.7403 17.3564 97.4295 19.0768C98.132 20.784 98.7417 22.3192 99.2586 23.6823Z" fill="#1E0D1F"/>
<path d="M108.867 13.1612V26.0048H115.269V9.13147H111.949L107.674 10.3027V12.4267L108.867 13.1612Z" fill="#1E0D1F"/>
<path d="M118.011 26.0048H124.433V14.4317C124.459 14.4052 124.506 14.3655 124.572 14.3126C124.652 14.2464 124.705 14.2001 124.731 14.1736C124.771 14.1472 124.824 14.1075 124.89 14.0545C124.97 13.9884 125.029 13.942 125.069 13.9156C125.109 13.8891 125.162 13.856 125.228 13.8163C125.294 13.7634 125.354 13.7303 125.407 13.7171C125.46 13.6906 125.52 13.6641 125.586 13.6377C125.666 13.598 125.732 13.5715 125.785 13.5583L125.984 13.5186C126.063 13.5053 126.143 13.4987 126.222 13.4987C127.322 13.4987 127.852 14.1207 127.813 15.3647V26.0048H134.373V15.9404C134.373 15.8477 134.38 15.722 134.393 15.5632V15.2059C134.393 12.8767 134.015 11.2158 133.26 10.2233C132.518 9.23073 131.239 8.73445 129.423 8.73445C128.906 8.73445 128.376 8.84033 127.833 9.05207C127.302 9.25058 126.845 9.49541 126.461 9.78656C126.076 10.0645 125.725 10.349 125.407 10.6402C125.102 10.9313 124.87 11.1827 124.711 11.3945L124.473 11.6923V9.13147H121.093L116.819 10.3027V12.4267L118.011 13.1612V26.0048Z" fill="#1E0D1F"/>
<path fill-rule="evenodd" clip-rule="evenodd" d="M141.038 32.2976C142.337 32.774 143.503 33.0123 144.537 33.0123C150.05 33.0123 152.807 30.4316 152.807 25.2704V12.0099L154 11.1761V9.31013L150.262 9.13147H147.221L146.883 10.0645C145.677 9.3366 144.252 8.97267 142.608 8.97267C141.521 8.97267 140.547 9.20426 139.686 9.66745C138.824 10.1174 138.122 10.746 137.578 11.5533C137.048 12.3473 136.644 13.2737 136.366 14.3324C136.087 15.3779 135.948 16.5227 135.948 17.7667C135.948 20.4267 136.459 22.5045 137.479 23.9999C138.5 25.4953 140.103 26.2431 142.29 26.2431C143.907 26.2431 145.279 25.6608 146.406 24.4962V26.1835C146.392 26.4747 146.366 26.7393 146.326 26.9775C146.299 27.2158 146.22 27.4804 146.087 27.7716C145.955 28.076 145.783 28.3274 145.571 28.5259C145.358 28.7377 145.054 28.9097 144.656 29.0421C144.272 29.1876 143.814 29.2604 143.284 29.2604C142.754 29.2604 142.118 29.1545 141.376 28.9428C140.633 28.7311 140.097 28.4995 139.765 28.248L138.513 30.9676C138.897 31.3911 139.739 31.8344 141.038 32.2976ZM146.406 22.2927C145.981 22.5177 145.571 22.6302 145.173 22.6302C144.258 22.6302 143.602 22.1074 143.205 21.0619C142.979 20.4532 142.867 19.7253 142.867 18.8783V15.8014C142.88 13.1017 143.768 11.7452 145.531 11.732C145.796 11.732 146.087 11.765 146.406 11.8312V22.2927Z" fill="#1E0D1F"/>
<path d="M115.606 1.94635C115.606 1.94955 115.606 1.95247 115.604 1.95567L114.898 4.98118C114.876 5.08772 114.816 5.18383 114.726 5.25295C114.637 5.32207 114.525 5.35987 114.409 5.35985H109.847C109.731 5.3598 109.618 5.32197 109.529 5.25285C109.44 5.18374 109.379 5.08767 109.358 4.98118L108.652 1.95567C108.652 1.95247 108.65 1.94955 108.649 1.94635C108.63 1.84618 108.646 1.74284 108.696 1.65213C108.745 1.56142 108.825 1.48832 108.923 1.44401C109.021 1.39969 109.131 1.3866 109.238 1.40672C109.345 1.42684 109.441 1.47908 109.513 1.55545L110.561 2.6125L111.676 0.273826C111.676 0.272855 111.676 0.271883 111.676 0.270913C111.715 0.190038 111.779 0.121541 111.859 0.0735286C111.939 0.0255163 112.033 0 112.128 0C112.223 0 112.316 0.0255163 112.396 0.0735286C112.476 0.121541 112.54 0.190038 112.58 0.270913C112.58 0.271883 112.58 0.272855 112.58 0.273826L113.694 2.6125L114.742 1.55545C114.815 1.47965 114.911 1.42792 115.017 1.40813C115.124 1.38833 115.234 1.40155 115.332 1.44577C115.429 1.48999 115.509 1.56281 115.558 1.65315C115.607 1.7435 115.624 1.84644 115.605 1.94635H115.606Z" fill="#E9262C"/>
</svg>
