<svg width="202" height="44" viewBox="0 0 202 44" fill="none" xmlns="http://www.w3.org/2000/svg">
<path d="M6.10211 10.9233V34.5401H14.9163V10.9233H21.0184V4.02313H0V10.9233H6.10211Z" fill="#1E0D1F"/>
<path d="M23.6178 17.6933V34.5401H32.0147V12.4075H27.6598L22.0531 13.9437V16.7299L23.6178 17.6933Z" fill="#1E0D1F"/>
<path d="M23.1223 5.71563L27.399 10.012H28.3899L32.8492 5.71563V4.80428L28.3899 0.533993H27.399L23.1223 4.80428V5.71563Z" fill="#1E0D1F"/>
<path d="M52.8234 32.6653L53.0581 32.3789L51.7543 28.8377C51.1632 29.3064 50.4069 29.6449 49.4855 29.8532C48.5815 30.0615 47.6949 30.1656 46.8256 30.1656C46.4432 30.1656 46.1215 30.1483 45.8608 30.1136C45.6 30.0789 45.261 29.9487 44.8438 29.723C44.4439 29.4973 44.1223 29.1849 43.8789 28.7856C43.6355 28.369 43.4182 27.7528 43.227 26.9369C43.0357 26.1037 42.9401 25.1055 42.9401 23.9425C42.9401 21.2692 43.2356 19.3944 43.8267 18.3182C44.4352 17.2246 45.5305 16.6778 47.1125 16.6778C47.3559 16.6778 47.5471 16.6951 47.6862 16.7299L49.1726 20.7137L52.8756 20.6877L53.2668 14.5687L52.7191 14.0219C51.0502 12.5811 48.7032 11.8607 45.6782 11.8607C44.1136 11.8607 42.6533 12.1384 41.2972 12.6939C39.9586 13.232 38.7851 14.0045 37.7768 15.0113C36.7858 16.0008 36.0035 17.2506 35.4298 18.7608C34.8561 20.2711 34.5693 21.9462 34.5693 23.7863C34.5693 27.1886 35.4994 29.9226 37.3595 31.9883C39.2371 34.054 41.9405 35.0869 45.4696 35.0869C46.5127 35.0869 47.4863 34.9914 48.3903 34.8005C49.3117 34.6269 50.0418 34.4099 50.5808 34.1495C51.1371 33.8718 51.6065 33.6027 51.989 33.3423C52.3888 33.0646 52.667 32.8389 52.8234 32.6653Z" fill="#1E0D1F"/>
<path d="M64.5157 23.8904L68.5577 34.5401H78.7279L71.7391 22.6406L78.5714 12.4075H68.7924L64.5157 23.8904Z" fill="#1E0D1F"/>
<path d="M55.4929 5.09071V34.5401H63.9941V0.42984H62.2991L53.9283 1.73176V4.15333L55.4929 5.09071Z" fill="#1E0D1F"/>
<path fill-rule="evenodd" clip-rule="evenodd" d="M84.2318 34.2016C85.6748 34.7918 87.3698 35.0869 89.3169 35.0869C90.36 35.0869 91.4553 34.9654 92.6027 34.7224C93.7501 34.4793 94.9409 34.0107 96.1753 33.3163C97.427 32.6046 98.3745 31.7279 99.0177 30.6864L97.4791 28.0565C96.9924 28.5079 96.3839 28.8984 95.6537 29.2283C94.9409 29.5581 94.2282 29.8011 93.5154 29.9573C92.82 30.1136 92.168 30.1917 91.5596 30.1917C90.9337 30.1917 90.4035 30.1396 89.9688 30.0355C89.5342 29.9313 89.1083 29.723 88.6911 29.4105C88.2738 29.0981 87.9522 28.612 87.7262 27.9524C87.5176 27.2928 87.4133 26.4508 87.4133 25.4267V24.9319H99.3306V22.0417C99.3306 18.4831 98.5918 15.9053 97.1141 14.3083C95.6363 12.6939 93.1851 11.8867 89.7602 11.8867C86.1963 11.8867 83.4234 12.8849 81.4415 14.8811C79.4597 16.8774 78.4687 19.8197 78.4687 23.7081C78.4687 25.3399 78.66 26.8241 79.0424 28.1607C79.4249 29.48 80.0247 30.6691 80.8418 31.7279C81.6762 32.7868 82.8063 33.6114 84.2318 34.2016ZM91.0641 16.3914C91.2901 17.3114 91.4031 18.8737 91.4031 21.0783H87.4393V18.891C87.4393 18.2661 87.4567 17.754 87.4915 17.3548C87.5436 16.9382 87.648 16.5389 87.8044 16.157C87.9609 15.7578 88.2043 15.4713 88.5346 15.2977C88.8649 15.1068 89.2908 15.0113 89.8124 15.0113C90.4209 15.0113 90.8381 15.4713 91.0641 16.3914Z" fill="#1E0D1F"/>
<path d="M103.329 32.9778C104.268 34.3839 105.911 35.0869 108.258 35.0869C109.44 35.0869 110.509 34.9567 111.465 34.6963C112.439 34.4359 113.134 34.1842 113.551 33.9412C113.969 33.6808 114.308 33.4204 114.568 33.1601V29.6188C114.377 29.7751 114.134 29.8966 113.838 29.9834C113.543 30.0702 113.212 30.1136 112.847 30.1136C112.013 30.1136 111.396 29.8879 110.996 29.4366C110.596 28.9852 110.396 28.0652 110.396 26.6765V16.9902H114.751V12.4075H110.474V6.34055H105.885L103.225 12.4075L100.148 13.3709V16.9902H101.947V25.8433C101.947 29.1936 102.408 31.5717 103.329 32.9778Z" fill="#1E0D1F"/>
<path d="M130.196 31.4936C130.892 33.2642 131.344 34.2797 131.552 34.5401H141.149C140.784 34.002 140.21 32.8823 139.428 31.1811C138.645 29.4626 137.889 27.7528 137.159 26.0516C136.429 24.3504 135.646 22.7274 134.812 21.1824C133.978 19.6375 133.308 18.6914 132.804 18.3442L140.575 4.02313H131.891L125.398 18.6307V4.02313H116.766V34.5401H125.398V20.3231C126.093 21.4862 126.893 23.196 127.797 25.4527C128.719 27.692 129.518 29.7056 130.196 31.4936Z" fill="#1E0D1F"/>
<path d="M142.8 17.6933V34.5401H151.197V12.4075H146.842L141.235 13.9437V16.7299L142.8 17.6933Z" fill="#1E0D1F"/>
<path d="M154.794 34.5401H163.217V19.3597C163.252 19.325 163.313 19.2729 163.4 19.2035C163.504 19.1167 163.574 19.056 163.608 19.0212C163.661 18.9865 163.73 18.9344 163.817 18.865C163.921 18.7782 164 18.7174 164.052 18.6827C164.104 18.648 164.173 18.6046 164.26 18.5525C164.347 18.4831 164.425 18.4397 164.495 18.4223C164.565 18.3876 164.643 18.3529 164.73 18.3182C164.834 18.2661 164.921 18.2314 164.99 18.214L165.251 18.162C165.356 18.1446 165.46 18.1359 165.564 18.1359C167.007 18.1359 167.703 18.9518 167.65 20.5835V34.5401H176.256V21.3386C176.256 21.2171 176.265 21.0522 176.282 20.8439V20.3752C176.282 17.3201 175.787 15.1415 174.796 13.8396C173.822 12.5377 172.144 11.8867 169.763 11.8867C169.085 11.8867 168.389 12.0256 167.676 12.3033C166.981 12.5637 166.381 12.8849 165.877 13.2668C165.373 13.6313 164.912 14.0045 164.495 14.3864C164.095 14.7683 163.791 15.0981 163.582 15.3759L163.269 15.7664V12.4075H158.836L153.23 13.9437V16.7299L154.794 17.6933V34.5401Z" fill="#1E0D1F"/>
<path fill-rule="evenodd" clip-rule="evenodd" d="M184.998 42.7943C186.701 43.4192 188.231 43.7316 189.587 43.7316C196.819 43.7316 200.435 40.3466 200.435 33.5767V16.1831L202 15.0894V12.6418L197.097 12.4075H193.108L192.664 13.6313C191.082 12.6766 189.213 12.1992 187.058 12.1992C185.632 12.1992 184.354 12.503 183.224 13.1105C182.094 13.7007 181.173 14.5253 180.46 15.5842C179.765 16.6257 179.234 17.8408 178.869 19.2295C178.504 20.6009 178.322 22.1024 178.322 23.7342C178.322 27.2233 178.991 29.9487 180.33 31.9102C181.668 33.8718 183.772 34.8526 186.64 34.8526C188.761 34.8526 190.561 34.0888 192.038 32.5612V34.7744C192.021 35.1563 191.986 35.5035 191.934 35.816C191.899 36.1284 191.795 36.4756 191.621 36.8575C191.447 37.2568 191.221 37.5866 190.943 37.847C190.665 38.1247 190.265 38.3504 189.744 38.524C189.239 38.7149 188.64 38.8104 187.944 38.8104C187.249 38.8104 186.414 38.6715 185.441 38.3938C184.467 38.116 183.763 37.8122 183.329 37.4824L181.686 41.0497C182.19 41.6052 183.294 42.1867 184.998 42.7943ZM192.038 29.6709C191.482 29.966 190.943 30.1136 190.422 30.1136C189.222 30.1136 188.362 29.4279 187.84 28.0565C187.544 27.258 187.397 26.3033 187.397 25.1923V21.1564C187.414 17.6152 188.579 15.8359 190.891 15.8185C191.239 15.8185 191.621 15.8619 192.038 15.9487V29.6709Z" fill="#1E0D1F"/>
<path d="M151.639 2.98284C151.639 2.98705 151.639 2.99087 151.637 2.99507L150.711 6.9636C150.682 7.10334 150.602 7.2294 150.485 7.32007C150.368 7.41073 150.221 7.46032 150.069 7.46029H144.084C143.932 7.46023 143.785 7.4106 143.668 7.31995C143.551 7.22929 143.472 7.10328 143.443 6.9636L142.517 2.99507C142.517 2.99087 142.515 2.98705 142.514 2.98284C142.489 2.85145 142.51 2.71591 142.575 2.59692C142.64 2.47794 142.744 2.38206 142.873 2.32393C143.001 2.2658 143.146 2.24862 143.286 2.27502C143.426 2.30141 143.553 2.36994 143.647 2.47011L145.022 3.85663L146.484 0.789014C146.484 0.787741 146.484 0.786466 146.484 0.785193C146.536 0.679111 146.619 0.589264 146.725 0.526287C146.83 0.46331 146.952 0.42984 147.077 0.42984C147.202 0.42984 147.324 0.46331 147.429 0.526287C147.534 0.589264 147.618 0.679111 147.67 0.785193C147.67 0.786466 147.67 0.787741 147.67 0.789014L149.132 3.85663L150.506 2.47011C150.601 2.37068 150.728 2.30283 150.867 2.27686C151.006 2.2509 151.151 2.26823 151.279 2.32624C151.407 2.38425 151.511 2.47975 151.576 2.59826C151.641 2.71676 151.663 2.85179 151.638 2.98284H151.639Z" fill="#E9262C"/>
</svg>
