<svg width="482" height="313" viewBox="0 0 482 313" fill="none" xmlns="http://www.w3.org/2000/svg">
<g filter="url(#filter0_i_333_26)">
<path d="M171.829 0.000855526C152.184 0.000855526 136.257 13.2414 136.257 29.5841C136.257 43.3459 147.562 54.8959 162.857 58.2086L126.477 128.345C142.82 130.815 155.2 142.712 155.2 157.021C155.2 173.119 139.524 186.179 120.173 186.179C100.82 186.179 85.1438 173.118 85.1438 157.02C85.1438 145.576 93.0725 135.686 104.604 130.913L52.3008 63.1006C60.5425 58.1187 65.9082 50.0552 65.9082 40.926C65.9082 25.7809 51.1748 13.4828 32.9706 13.4828C14.7643 13.4828 0 25.7834 0 40.926C0 56.0711 14.7643 68.3453 32.9685 68.3453C33.724 68.3453 34.4795 68.3333 35.2206 68.2922L78.3555 262.603H403.615L446.779 68.2922C447.52 68.3333 448.277 68.3461 449.031 68.3461C467.236 68.3461 482 56.0711 482 40.9269C482 25.7817 467.236 13.4836 449.031 13.4836C430.826 13.4836 416.063 25.7843 416.063 40.9269C416.061 50.1057 421.504 58.2069 429.828 63.1828L377.688 131.262C388.781 136.158 396.345 145.848 396.345 157.022C396.345 173.12 380.668 186.18 361.318 186.18C341.967 186.18 326.288 173.119 326.288 157.021C326.288 142.375 339.26 130.257 356.169 128.185L320.401 58.3943C336.123 55.3324 347.839 43.5967 347.839 29.5841C347.839 13.2397 331.911 0.000855526 312.266 0.000855526C292.617 0.000855526 276.689 13.2414 276.689 29.5841C276.689 42.2511 286.27 53.0512 299.72 57.2713L253.885 122.301C268.934 126.17 279.875 137.805 279.875 151.592C279.875 168.537 263.352 182.273 242.981 182.273C222.611 182.273 206.12 168.537 206.12 151.591C206.12 138.616 215.798 127.536 229.471 123.049L184.054 57.3774C197.676 53.2301 207.407 42.353 207.407 29.5832C207.407 13.2388 191.479 0 171.831 0L171.829 0.000855526ZM78.3257 278.598C53.6451 281.819 54.7959 312.705 82.6364 312.705H89.4874L89.5533 313H392.456L392.521 312.706H400.369C427.166 312.706 429.066 281.951 404.809 278.601H78.3247L78.3257 278.598Z" fill="#D9D9D9"/>
<path d="M171.829 0.000855526C152.184 0.000855526 136.257 13.2414 136.257 29.5841C136.257 43.3459 147.562 54.8959 162.857 58.2086L126.477 128.345C142.82 130.815 155.2 142.712 155.2 157.021C155.2 173.119 139.524 186.179 120.173 186.179C100.82 186.179 85.1438 173.118 85.1438 157.02C85.1438 145.576 93.0725 135.686 104.604 130.913L52.3008 63.1006C60.5425 58.1187 65.9082 50.0552 65.9082 40.926C65.9082 25.7809 51.1748 13.4828 32.9706 13.4828C14.7643 13.4828 0 25.7834 0 40.926C0 56.0711 14.7643 68.3453 32.9685 68.3453C33.724 68.3453 34.4795 68.3333 35.2206 68.2922L78.3555 262.603H403.615L446.779 68.2922C447.52 68.3333 448.277 68.3461 449.031 68.3461C467.236 68.3461 482 56.0711 482 40.9269C482 25.7817 467.236 13.4836 449.031 13.4836C430.826 13.4836 416.063 25.7843 416.063 40.9269C416.061 50.1057 421.504 58.2069 429.828 63.1828L377.688 131.262C388.781 136.158 396.345 145.848 396.345 157.022C396.345 173.12 380.668 186.18 361.318 186.18C341.967 186.18 326.288 173.119 326.288 157.021C326.288 142.375 339.26 130.257 356.169 128.185L320.401 58.3943C336.123 55.3324 347.839 43.5967 347.839 29.5841C347.839 13.2397 331.911 0.000855526 312.266 0.000855526C292.617 0.000855526 276.689 13.2414 276.689 29.5841C276.689 42.2511 286.27 53.0512 299.72 57.2713L253.885 122.301C268.934 126.17 279.875 137.805 279.875 151.592C279.875 168.537 263.352 182.273 242.981 182.273C222.611 182.273 206.12 168.537 206.12 151.591C206.12 138.616 215.798 127.536 229.471 123.049L184.054 57.3774C197.676 53.2301 207.407 42.353 207.407 29.5832C207.407 13.2388 191.479 0 171.831 0L171.829 0.000855526ZM78.3257 278.598C53.6451 281.819 54.7959 312.705 82.6364 312.705H89.4874L89.5533 313H392.456L392.521 312.706H400.369C427.166 312.706 429.066 281.951 404.809 278.601H78.3247L78.3257 278.598Z" fill="black" fill-opacity="0.2"/>
</g>
<defs>
<filter id="filter0_i_333_26" x="0" y="0" width="482" height="317" filterUnits="userSpaceOnUse" color-interpolation-filters="sRGB">
<feFlood flood-opacity="0" result="BackgroundImageFix"/>
<feBlend mode="normal" in="SourceGraphic" in2="BackgroundImageFix" result="shape"/>
<feColorMatrix in="SourceAlpha" type="matrix" values="0 0 0 0 0 0 0 0 0 0 0 0 0 0 0 0 0 0 127 0" result="hardAlpha"/>
<feOffset dy="4"/>
<feGaussianBlur stdDeviation="2"/>
<feComposite in2="hardAlpha" operator="arithmetic" k2="-1" k3="1"/>
<feColorMatrix type="matrix" values="0 0 0 0 0.117647 0 0 0 0 0.0509804 0 0 0 0 0.121569 0 0 0 0.5 0"/>
<feBlend mode="normal" in2="shape" result="effect1_innerShadow_333_26"/>
</filter>
</defs>
</svg>
