<svg width="174" height="40" viewBox="0 0 174 40" fill="none" xmlns="http://www.w3.org/2000/svg">
<path d="M0 8.39252C0 7.60602 0.604068 6.9514 1.38804 6.88832L80.0226 0.561403C84.6667 0.187738 89.3333 0.187739 93.9775 0.561404L172.612 6.88832C173.396 6.9514 174 7.60602 174 8.39252C174 9.26341 173.265 9.95353 172.396 9.89858L87 4.5L1.60428 9.89858C0.735123 9.95353 0 9.26341 0 8.39252Z" fill="#1E0D1F"/>
<path d="M68.9182 33.55C67.6132 33.55 66.6232 33.265 65.9182 32.875V31.615C66.7132 31.99 67.7182 32.26 68.8132 32.26C70.2682 32.26 70.8832 31.615 70.8832 30.595C70.8832 29.695 70.4782 29.305 69.3082 28.93L68.3032 28.6C66.8932 28.165 66.0232 27.415 66.0232 25.75C66.0232 24.085 67.1332 22.915 69.3382 22.915C70.6432 22.915 71.3632 23.2 71.9332 23.485V24.745C71.3032 24.475 70.4632 24.205 69.3382 24.205C68.1982 24.205 67.5532 24.7 67.5532 25.615C67.5532 26.5 67.8682 26.89 68.9332 27.22L69.9532 27.535C71.4982 28.03 72.4732 28.705 72.4732 30.475C72.4732 32.35 71.3632 33.55 68.9182 33.55ZM77.1797 33.505C74.9897 33.505 73.5947 32.26 73.5947 29.725V29.47C73.5947 26.8 75.1997 25.57 77.2697 25.57C78.2747 25.57 78.8597 25.765 79.3697 26.065V27.28C78.6947 26.995 78.2297 26.815 77.2547 26.815C75.9497 26.815 75.1247 27.67 75.1247 29.275V29.665C75.1247 31.51 75.9047 32.29 77.4047 32.29C78.3797 32.29 79.0547 31.975 79.4597 31.78V32.905C78.9497 33.235 78.2447 33.505 77.1797 33.505ZM80.8416 33.37V25.72H82.2666V26.575H82.3266C82.7766 26.065 83.5566 25.63 84.3816 25.63C84.5616 25.63 84.7866 25.645 84.8616 25.69V27.01C84.6666 26.98 84.4116 26.965 84.2616 26.965C83.5416 26.965 82.8366 27.175 82.3116 27.52V33.37H80.8416ZM89.3846 33.505C86.9096 33.505 85.6796 32.035 85.6796 29.635V29.44C85.6796 26.815 87.2546 25.57 89.0996 25.57C91.2596 25.57 92.2646 26.815 92.2646 29.23V29.95H87.1946C87.2996 31.705 88.1546 32.29 89.6546 32.29C90.6596 32.29 91.3196 32.05 92.0246 31.735V32.77C91.5446 33.115 90.6596 33.505 89.3846 33.505ZM89.0396 26.74C88.2296 26.74 87.3146 27.16 87.1946 28.87H90.7196C90.7196 27.325 90.1496 26.74 89.0396 26.74ZM97.0165 33.505C94.5415 33.505 93.3115 32.035 93.3115 29.635V29.44C93.3115 26.815 94.8865 25.57 96.7315 25.57C98.8915 25.57 99.8965 26.815 99.8965 29.23V29.95H94.8265C94.9315 31.705 95.7865 32.29 97.2865 32.29C98.2915 32.29 98.9515 32.05 99.6565 31.735V32.77C99.1765 33.115 98.2915 33.505 97.0165 33.505ZM96.6715 26.74C95.8615 26.74 94.9465 27.16 94.8265 28.87H98.3515C98.3515 27.325 97.7815 26.74 96.6715 26.74ZM101.393 33.37V25.72H102.818V26.38H102.878C103.523 25.93 104.513 25.57 105.443 25.57C106.928 25.57 107.648 26.185 107.648 27.67V33.37H106.163V28.015C106.163 27.175 105.923 26.83 104.768 26.83C104.123 26.83 103.388 27.055 102.863 27.31V33.37H101.393Z" fill="#89818A"/>
</svg>
